<svg id="Layer_1" data-name="Layer 1" xmlns="http://www.w3.org/2000/svg" viewBox="0 0 100 100"><defs><style>.cls-1{fill:#fff;}</style></defs><title>TheGoat Workflow</title><path class="cls-1" d="M4.73,32.58c.19.35.42.69.62,1A4.33,4.33,0,0,1,7,30.94a7,7,0,0,1-2.24-3A7.7,7.7,0,0,1,4,24.36l-.49.45-.54.88A6.08,6.08,0,0,0,3,28.05,17.2,17.2,0,0,0,4.73,32.58Z"/><path class="cls-1" d="M13.41,47a5.32,5.32,0,0,1-1.08.4,10.29,10.29,0,0,1-1.38,0,2.52,2.52,0,0,0-.3,0l1,.63c.61.15,1.22.34,1.83.44a4.92,4.92,0,0,0,2.08-.16Z"/><path class="cls-1" d="M20.53,27.33a5.76,5.76,0,0,0,2.52.68h.39A41.34,41.34,0,0,1,22,18a1.36,1.36,0,0,0-.76,0c-.59.13-1.17.29-1.71.42C21.45,21.26,21.44,24.23,20.53,27.33Z"/><path class="cls-1" d="M17.58,27.34a7.76,7.76,0,0,0,2.32,0,.38.38,0,0,0,.36-.36,11.82,11.82,0,0,0-.44-6.18,9.92,9.92,0,0,0-1-1.87,1.36,1.36,0,0,0-.71-.56,3.29,3.29,0,0,0-2.3.22A21.44,21.44,0,0,1,17,22.91C17.22,24.37,17.38,25.84,17.58,27.34Z"/><path class="cls-1" d="M15.33,27.47c.66,0,1.31,0,2-.07a43,43,0,0,0-2.55-8.68l-1.49.09a.46.46,0,0,0-.48.43,8.31,8.31,0,0,0-.13.86A11.48,11.48,0,0,0,15,27.28.51.51,0,0,0,15.33,27.47Z"/><path class="cls-1" d="M10.66,25.61A11.48,11.48,0,0,0,12,28l2.66-.64c-1.94-2.33-3.26-4.86-3-8A2.59,2.59,0,0,0,10.1,20c-.25.27-.24.77-.33,1.18a1.51,1.51,0,0,0,0,.36A10.62,10.62,0,0,0,10.66,25.61Z"/><path class="cls-1" d="M9.09,29.32c.92-.4,1.56-1.17,2.56-1.15-1.83-2.24-3.06-4.64-2.76-7.58l-.5.16A1.75,1.75,0,0,0,7,22.53,9.86,9.86,0,0,0,8,27.27C8.28,28,8.71,28.63,9.09,29.32Z"/><path class="cls-1" d="M4.8,37.37c.4.52.86,1,1.28,1.52l.09,0-.06-.12a8.18,8.18,0,0,1-.83-4.39A.5.5,0,0,0,5.15,34,11.56,11.56,0,0,1,2,27.35c-.17.38-.36.75-.51,1.13a5,5,0,0,0,.31,3.84A22.07,22.07,0,0,0,4.8,37.37Z"/><path class="cls-1" d="M28.53,44.2a5.68,5.68,0,0,0-5-1.55c-.14,0-.35.14-.37.25s0,.42.32.56a8.07,8.07,0,0,1,1.62,1,5.55,5.55,0,0,1,1.76,3.38h.06a2.76,2.76,0,0,0,1.8-3.45A.54.54,0,0,0,28.53,44.2Z"/><path class="cls-1" d="M22.43,41.73c.18.17.31,0,.47,0a2.4,2.4,0,0,1,.49-.16,3.54,3.54,0,0,1,1.83.17,9.52,9.52,0,0,1,3.51,2.08,3.83,3.83,0,0,0-.78-2.33,7.8,7.8,0,0,0-3.35-2.51.49.49,0,0,0-.32,0,3.12,3.12,0,0,0-2.14,2.15C22,41.42,22.24,41.56,22.43,41.73Z"/><path class="cls-1" d="M6.5,31.88a2.52,2.52,0,0,0-.59,2.05.88.88,0,0,0,.59.75,7.39,7.39,0,0,0,3.36.51c1.33-.06,1.45-.16,1.84-1.4a.17.17,0,0,0,0,0l-.09,0a7.32,7.32,0,0,1-3.19-1.38,8.3,8.3,0,0,0-1-.65A.65.65,0,0,0,6.5,31.88Z"/><path class="cls-1" d="M5.77,36.47A5.87,5.87,0,0,0,7,39.19a.41.41,0,0,0,.33.1,4.55,4.55,0,0,0,2.59-1.4,3.17,3.17,0,0,0,.9-1.69A5.75,5.75,0,0,1,6,34.69,3.22,3.22,0,0,0,5.77,36.47Z"/><path class="cls-1" d="M7.06,30.75l1.69-1.38A9.33,9.33,0,0,1,6,22.44a1.46,1.46,0,0,0-1.07,1.39,10.07,10.07,0,0,0,1.38,5.76C6.55,30,6.83,30.39,7.06,30.75Z"/><path class="cls-1" d="M6.4,41.37c.58.41,1.21.72,1.82,1.08l.06-.1a11.07,11.07,0,0,1-1.88-2.84.88.88,0,0,0-.27-.31,10.55,10.55,0,0,1-1.07-.73,15.22,15.22,0,0,1-3.91-5.59,1.64,1.64,0,0,0-.08-.15.89.89,0,0,0-.07.42,7.09,7.09,0,0,0,.83,3A14.13,14.13,0,0,0,6.4,41.37Z"/><path class="cls-1" d="M21,45.35A2.12,2.12,0,0,0,19.73,45a2.87,2.87,0,0,1,.75,2.09c-.05.75-.18,1.49-.29,2.32a3.23,3.23,0,0,0,.86.13c.73-.08,1.45-.22,2.17-.34.3,0,.34-.22.27-.48A5.59,5.59,0,0,0,21,45.35Z"/><path class="cls-1" d="M25.08,45.68a4.31,4.31,0,0,0-2.56-1.25.61.61,0,0,0-.68.41,2.21,2.21,0,0,1,1.21,1,8.24,8.24,0,0,1,.63,1.62,14.43,14.43,0,0,1,.26,1.68,2.82,2.82,0,0,0,2.2-.76.58.58,0,0,0,.21-.65A3.92,3.92,0,0,0,25.08,45.68Z"/><path class="cls-1" d="M19.84,49.08a2.85,2.85,0,0,0-.35-2.41,5.54,5.54,0,0,0-2-2.12,3.8,3.8,0,0,1-1,3.67.27.27,0,0,0,0,.06l.06.08a3.69,3.69,0,0,0,3,1C19.68,49.31,19.8,49.18,19.84,49.08Z"/><path class="cls-1" d="M8.73,42.32a.43.43,0,0,0,.56,0,4.55,4.55,0,0,0,1.58-1.95,2.12,2.12,0,0,0-.2-2.18l-.18.16a4.62,4.62,0,0,1-2.82,1.28c-.46,0-.52.09-.41.55A3.82,3.82,0,0,0,8.73,42.32Z"/><path class="cls-1" d="M11,45.19a6.87,6.87,0,0,1-2.08-2.06.79.79,0,0,0-.71-.42,2,2,0,0,1-.58-.12,12.27,12.27,0,0,1-4.28-2.45C4.38,42.83,8.45,45.51,11,45.19Z"/><path class="cls-1" d="M9.21,29.77a1.74,1.74,0,0,0-1.43.84c-.42.7-.41.65.26,1.08a8.53,8.53,0,0,0,3.75,1.19,1.5,1.5,0,0,0,1.47-.83l-.15,0a7.46,7.46,0,0,1-3.6-2.14A.4.4,0,0,0,9.21,29.77Z"/><path class="cls-1" d="M11.12,45a.59.59,0,0,0,.74-.08,3.18,3.18,0,0,0-.06-4.46,3.66,3.66,0,0,1-2.58,2.37A3.72,3.72,0,0,0,11.12,45Z"/><path class="cls-1" d="M10.08,29.1a4.67,4.67,0,0,0-.45.52,8.16,8.16,0,0,0,4,1.75,1.07,1.07,0,0,0,.51,0c.32-.15.61-.36,1-.59a6.53,6.53,0,0,1-2.5-1.56A1.84,1.84,0,0,0,10.08,29.1Z"/><path class="cls-1" d="M15.62,48.08c.53.12.58.09.76-.41a5.34,5.34,0,0,0-.09-3.42,1.14,1.14,0,0,0-1-.73,2.93,2.93,0,0,1-1.7,3.16A3.16,3.16,0,0,0,15.62,48.08Z"/><path class="cls-1" d="M13,46.43a.63.63,0,0,0,.68-.17,2.91,2.91,0,0,0,0-3.91c-.09-.09-.19-.18-.35-.32A3.46,3.46,0,0,1,13,43.94a2.52,2.52,0,0,1-1.28,1.37A2,2,0,0,0,13,46.43Z"/><path class="cls-1" d="M21.19,40.57a4,4,0,0,1,2.95-1.89A5.09,5.09,0,0,0,21,37.6a.39.39,0,0,0-.25.12A2,2,0,0,0,21.19,40.57Z"/><path class="cls-1" d="M13,46.82A6.38,6.38,0,0,1,12,46.09a1.68,1.68,0,0,0-1.6-.5,6.6,6.6,0,0,1-2.9-.47C8.17,46.39,11.7,47.45,13,46.82Z"/><path class="cls-1" d="M14.3,28.06a12.23,12.23,0,0,0-1.45.22,1.93,1.93,0,0,0-.43.21,8.46,8.46,0,0,0,3.17,1.58,4.77,4.77,0,0,0,.89,0l-.93-1.35A1.37,1.37,0,0,0,14.3,28.06Z"/><path class="cls-1" d="M19.77,40A6.75,6.75,0,0,1,20,38.68a7.24,7.24,0,0,1,.72-1.21c-.72,0-1.38-.05-2,0s-.75.26-.58.83A2.71,2.71,0,0,0,19.77,40Z"/><path class="cls-1" d="M18,37.53a3.09,3.09,0,0,0-.55.07c-.32.1-.64.23-.95.35L15,38.63a2.57,2.57,0,0,0-.36.26,6.08,6.08,0,0,0,2.18.24l-.1-.49,1.35.83A2.83,2.83,0,0,1,18,37.53Z"/><path class="cls-1" d="M18.84,49.6a4.68,4.68,0,0,1-2.19-.72.79.79,0,0,0-1-.09,1.94,1.94,0,0,1-.69.19c-.23,0-.46.06-.69.09a10.73,10.73,0,0,0,4.54.88,4.1,4.1,0,0,0,.72-.17l0-.1Z"/><path class="cls-1" d="M15.37,28c.45.44.89.83,1.28,1.25a.78.78,0,0,0,1.14.17l.06-.06L17.37,28Z"/><path class="cls-1" d="M19.91,49.73l-.31.5a5.29,5.29,0,0,0,3.67-.44A8.4,8.4,0,0,1,19.91,49.73Z"/><path class="cls-1" d="M20.27,28.46,17.77,28l.6,1.12Z"/><path class="cls-1" d="M23.68,50a9.83,9.83,0,0,0,2.44-.8c-.61.11-1.32.26-2,.37C23.84,49.61,23.69,49.71,23.68,50Z"/><path class="cls-1" d="M25.29,26.46A7.17,7.17,0,0,0,25.36,23a7.17,7.17,0,0,0-2.67-4.62A2.42,2.42,0,0,0,22,18a41.34,41.34,0,0,0,1.41,10A1.88,1.88,0,0,0,25.29,26.46Z"/><path class="cls-1" d="M93,30.94a4.33,4.33,0,0,1,1.61,2.67c.21-.35.43-.68.62-1A17.2,17.2,0,0,0,97,28.05a6.08,6.08,0,0,0,.09-2.36l-.54-.88L96,24.36A7.7,7.7,0,0,1,95.27,28,7,7,0,0,1,93,30.94Z"/><path class="cls-1" d="M87.67,47.45a5.32,5.32,0,0,1-1.08-.4l-2.19,1.34a4.92,4.92,0,0,0,2.08.16c.62-.1,1.22-.29,1.83-.44l1-.63a2.52,2.52,0,0,0-.3,0A10.29,10.29,0,0,1,87.67,47.45Z"/><path class="cls-1" d="M76.95,28a5.76,5.76,0,0,0,2.52-.68c-.92-3.1-.92-6.07,1-9-.55-.14-1.13-.29-1.71-.42A1.36,1.36,0,0,0,78,18a41.34,41.34,0,0,1-1.41,10Z"/><path class="cls-1" d="M79.74,27a.38.38,0,0,0,.36.36,7.76,7.76,0,0,0,2.32,0c.2-1.5.36-3,.59-4.43a21.44,21.44,0,0,1,1.15-4.33,3.29,3.29,0,0,0-2.3-.22,1.36,1.36,0,0,0-.71.56,9.92,9.92,0,0,0-1,1.87A11.82,11.82,0,0,0,79.74,27Z"/><path class="cls-1" d="M84.67,27.47a.51.51,0,0,0,.36-.19,11.48,11.48,0,0,0,2.28-7.17,8.31,8.31,0,0,0-.13-.86.46.46,0,0,0-.48-.43l-1.49-.09a43,43,0,0,0-2.55,8.68C83.36,27.43,84,27.46,84.67,27.47Z"/><path class="cls-1" d="M85.33,27.36,88,28a11.48,11.48,0,0,0,1.35-2.4,10.62,10.62,0,0,0,.91-4,1.51,1.51,0,0,0,0-.36c-.09-.4-.08-.91-.33-1.18a2.59,2.59,0,0,0-1.61-.64C88.59,22.5,87.27,25,85.33,27.36Z"/><path class="cls-1" d="M88.34,28.16c1,0,1.64.75,2.56,1.15.39-.68.81-1.34,1.14-2A9.86,9.86,0,0,0,93,22.53a1.75,1.75,0,0,0-1.38-1.78l-.5-.16C91.41,23.53,90.17,25.92,88.34,28.16Z"/><path class="cls-1" d="M94.73,34.32a8.18,8.18,0,0,1-.83,4.39l-.06.12.09,0c.43-.5.88-1,1.28-1.52a22.07,22.07,0,0,0,3-5,5,5,0,0,0,.31-3.84c-.15-.38-.34-.75-.51-1.13A11.56,11.56,0,0,1,94.85,34,.5.5,0,0,0,94.73,34.32Z"/><path class="cls-1" d="M76.53,43.46c.28-.15.37-.33.32-.56s-.23-.22-.37-.25a5.68,5.68,0,0,0-5,1.55.54.54,0,0,0-.18.23,2.76,2.76,0,0,0,1.8,3.45h.06a5.55,5.55,0,0,1,1.76-3.38A8.07,8.07,0,0,1,76.53,43.46Z"/><path class="cls-1" d="M75.71,39a.49.49,0,0,0-.32,0,7.8,7.8,0,0,0-3.35,2.51,3.83,3.83,0,0,0-.78,2.33,9.52,9.52,0,0,1,3.51-2.08,3.54,3.54,0,0,1,1.83-.17,2.4,2.4,0,0,1,.49.16c.15.07.28.21.47,0s.39-.31.29-.63A3.12,3.12,0,0,0,75.71,39Z"/><path class="cls-1" d="M88.38,33.72l-.09,0a.17.17,0,0,0,0,0c.39,1.24.51,1.34,1.84,1.4a7.39,7.39,0,0,0,3.36-.51.88.88,0,0,0,.59-.75,2.52,2.52,0,0,0-.59-2.05.65.65,0,0,0-.91-.18,8.3,8.3,0,0,0-1,.65A7.32,7.32,0,0,1,88.38,33.72Z"/><path class="cls-1" d="M93,39.19a5.87,5.87,0,0,0,1.2-2.72A3.22,3.22,0,0,0,94,34.69a5.75,5.75,0,0,1-4.77,1.51,3.17,3.17,0,0,0,.9,1.69,4.55,4.55,0,0,0,2.59,1.4A.41.41,0,0,0,93,39.19Z"/><path class="cls-1" d="M92.94,30.75c.23-.35.52-.75.75-1.16a10.07,10.07,0,0,0,1.38-5.76A1.46,1.46,0,0,0,94,22.44a9.33,9.33,0,0,1-2.76,6.92Z"/><path class="cls-1" d="M98.93,32.74a1.64,1.64,0,0,0-.08.15,15.22,15.22,0,0,1-3.91,5.59,10.55,10.55,0,0,1-1.07.73.88.88,0,0,0-.27.31,11.07,11.07,0,0,1-1.88,2.84l.06.1c.61-.36,1.25-.67,1.82-1.08a14.13,14.13,0,0,0,4.57-5.2,7.09,7.09,0,0,0,.83-3A.89.89,0,0,0,98.93,32.74Z"/><path class="cls-1" d="M78.95,49.56a3.23,3.23,0,0,0,.86-.13c-.11-.83-.24-1.57-.29-2.32A2.87,2.87,0,0,1,80.27,45a2.12,2.12,0,0,0-1.25.33,5.59,5.59,0,0,0-2.51,3.39c-.07.27,0,.44.27.48C77.5,49.33,78.22,49.48,78.95,49.56Z"/><path class="cls-1" d="M76.31,47.43a8.24,8.24,0,0,1,.63-1.62,2.21,2.21,0,0,1,1.21-1,.61.61,0,0,0-.68-.41,4.31,4.31,0,0,0-2.56,1.25,3.92,3.92,0,0,0-1.27,2,.58.58,0,0,0,.21.65,2.82,2.82,0,0,0,2.2.76A14.43,14.43,0,0,1,76.31,47.43Z"/><path class="cls-1" d="M83.42,48.36l.06-.08a.27.27,0,0,0,0-.06,3.8,3.8,0,0,1-1-3.67,5.54,5.54,0,0,0-2,2.12,2.85,2.85,0,0,0-.35,2.41c0,.1.15.23.25.24A3.69,3.69,0,0,0,83.42,48.36Z"/><path class="cls-1" d="M91.27,42.32a3.82,3.82,0,0,0,1.45-2.12c.11-.46.05-.5-.41-.55a4.62,4.62,0,0,1-2.82-1.28l-.18-.16a2.12,2.12,0,0,0-.2,2.18,4.55,4.55,0,0,0,1.58,1.95A.43.43,0,0,0,91.27,42.32Z"/><path class="cls-1" d="M91.82,42.71a.79.79,0,0,0-.71.42A6.87,6.87,0,0,1,89,45.19c2.52.33,6.6-2.36,7.66-5.06a12.27,12.27,0,0,1-4.28,2.45A2,2,0,0,1,91.82,42.71Z"/><path class="cls-1" d="M90.79,29.77a.4.4,0,0,0-.29.09A7.46,7.46,0,0,1,86.91,32l-.15,0a1.5,1.5,0,0,0,1.47.83A8.53,8.53,0,0,0,92,31.69c.67-.43.68-.39.26-1.08A1.74,1.74,0,0,0,90.79,29.77Z"/><path class="cls-1" d="M88.88,45a3.72,3.72,0,0,0,1.9-2.17,3.66,3.66,0,0,1-2.58-2.37,3.18,3.18,0,0,0-.06,4.46A.59.59,0,0,0,88.88,45Z"/><path class="cls-1" d="M87.31,29.17a6.53,6.53,0,0,1-2.5,1.56c.38.23.68.44,1,.59a1.07,1.07,0,0,0,.51,0,8.16,8.16,0,0,0,4-1.75,4.67,4.67,0,0,0-.45-.52A1.84,1.84,0,0,0,87.31,29.17Z"/><path class="cls-1" d="M84.38,48.08a3.16,3.16,0,0,0,2-1.4,2.93,2.93,0,0,1-1.7-3.16,1.14,1.14,0,0,0-1,.73,5.34,5.34,0,0,0-.09,3.42C83.8,48.17,83.85,48.19,84.38,48.08Z"/><path class="cls-1" d="M87,46.43a2,2,0,0,0,1.32-1.12A2.52,2.52,0,0,1,87,43.94,3.46,3.46,0,0,1,86.7,42c-.16.14-.26.23-.35.32a2.91,2.91,0,0,0,0,3.91A.63.63,0,0,0,87,46.43Z"/><path class="cls-1" d="M78.81,40.57a2,2,0,0,0,.48-2.85A.39.39,0,0,0,79,37.6a5.09,5.09,0,0,0-3.18,1.08A4,4,0,0,1,78.81,40.57Z"/><path class="cls-1" d="M89.62,45.59a1.68,1.68,0,0,0-1.6.5,6.38,6.38,0,0,1-1.06.74c1.34.63,4.87-.43,5.56-1.71A6.6,6.6,0,0,1,89.62,45.59Z"/><path class="cls-1" d="M85.7,28.06a1.37,1.37,0,0,0-1.25.7l-.93,1.35a4.77,4.77,0,0,0,.89,0,8.46,8.46,0,0,0,3.17-1.58,1.93,1.93,0,0,0-.43-.21A12.23,12.23,0,0,0,85.7,28.06Z"/><path class="cls-1" d="M80.23,40a2.71,2.71,0,0,0,1.71-1.74c.17-.57,0-.81-.58-.83s-1.32,0-2,0A7.24,7.24,0,0,1,80,38.68,6.75,6.75,0,0,1,80.23,40Z"/><path class="cls-1" d="M85.38,38.89a2.57,2.57,0,0,0-.36-.26L83.47,38c-.31-.13-.62-.25-.95-.35a3.09,3.09,0,0,0-.55-.07,2.83,2.83,0,0,1,0,1.93l1.35-.83-.1.49A6.08,6.08,0,0,0,85.38,38.89Z"/><path class="cls-1" d="M84.38,48.79a.79.79,0,0,0-1,.09,4.68,4.68,0,0,1-2.19.72l-.62.07,0,.1a4.1,4.1,0,0,0,.72.17,10.73,10.73,0,0,0,4.54-.88c-.23,0-.46,0-.69-.09A1.94,1.94,0,0,1,84.38,48.79Z"/><path class="cls-1" d="M82.15,29.37l.06.06a.78.78,0,0,0,1.14-.17c.39-.42.82-.81,1.28-1.25h-2Z"/><path class="cls-1" d="M76.73,49.79a5.29,5.29,0,0,0,3.67.44l-.31-.5A8.4,8.4,0,0,1,76.73,49.79Z"/><path class="cls-1" d="M81.63,29.16l.6-1.12-2.5.41Z"/><path class="cls-1" d="M75.91,49.57c-.71-.12-1.42-.26-2-.37a9.83,9.83,0,0,0,2.44.8C76.31,49.71,76.16,49.61,75.91,49.57Z"/><path class="cls-1" d="M74.64,23a7.17,7.17,0,0,0,.07,3.48A1.88,1.88,0,0,0,76.56,28,41.34,41.34,0,0,0,78,18a2.42,2.42,0,0,0-.66.37A7.17,7.17,0,0,0,74.64,23Z"/><path class="cls-1" d="M55.27,61.51c.37-3.39,4.82-7.28,9.61-13.05.75-.23,7.55-8.13,10.67-19.64l.13-.49c-1-.05-1.48-1.14-1.76-1.86A6.35,6.35,0,0,1,73.85,23a8,8,0,0,1,2.54-4.68,3.27,3.27,0,0,1,.8-.47c0-.32,0-.47,0-.79s0-.39,0-.58c-.1-.81-.47-2.38-1-2.38H23.77c-.49,0-.87,1.57-1,2.38,0,.2,0,.39,0,.58s0,.47,0,.79a3.27,3.27,0,0,1,.8.47A8,8,0,0,1,26.15,23a6.35,6.35,0,0,1-.07,3.48c-.27.72-.79,1.8-1.76,1.86l.13.49c3.12,11.51,9.92,19.41,10.67,19.64,4.79,5.78,9.23,9.66,9.61,13.05.58,5.59-9.45,11.84-15.37,16.28-.9.66,0,4.27.58,6.49a2.2,2.2,0,0,0,2.14,1.64H67.93a2.2,2.2,0,0,0,2.14-1.64c.58-2.22,1.48-5.84.58-6.49C64.72,73.34,54.7,67.1,55.27,61.51Z"/></svg>